<svg xmlns="http://www.w3.org/2000/svg" width="26" height="26" viewBox="0 0 26 26"><path d="M 5.796875 0 C 2.593771 0 0 2.5956281 0 5.7988281 L 0 20.203125 C 0 23.406125 2.59376 26 5.796875 26 L 20.203125 26 C 23.406239 26 26 23.406125 26 20.203125 L 26 5.7988281 C 26 2.5956281 23.406228 0 20.203125 0 L 5.796875 0 z M 5.796875 1 L 20.203125 1 C 22.869534 1 25 3.1323281 25 5.7988281 L 25 20.203125 C 25 22.869425 22.869523 25 20.203125 25 L 5.796875 25 C 3.130477 25 1 22.869425 1 20.203125 L 1 5.7988281 C 1 3.1323281 3.130466 1 5.796875 1 z M 13.005859 5.9980469 L 13.005859 6 A 0.50005012 0.50005012 0 0 0 12.957031 6 A 0.50005012 0.50005012 0 0 0 12.615234 6.1660156 L 8.1269531 11.169922 A 0.50005012 0.50005012 0 0 0 8.5 12.001953 L 10.75 12.001953 L 11 12.001953 L 11.003906 19.503906 A 0.50005012 0.50005012 0 0 0 11.503906 20.001953 L 14.5 20.001953 A 0.50005012 0.50005012 0 0 0 15 19.501953 L 15 12.001953 L 15.25 12.001953 L 17.5 12.001953 A 0.50005012 0.50005012 0 0 0 17.871094 11.167969 L 13.359375 6.1640625 A 0.50005012 0.50005012 0 0 0 13.005859 5.9980469 z M 12.988281 7.2480469 L 16.375 11.003906 L 15.25 11.003906 L 14.5 11.003906 A 0.50005012 0.50005012 0 0 0 14 11.503906 L 14 19.001953 L 12.003906 19.001953 L 12 11.501953 A 0.50005012 0.50005012 0 0 0 11.5 11.001953 L 10.75 11.001953 L 9.6210938 11.001953 L 12.988281 7.2480469 z " color="#000" font-family="sans-serif" font-weight="400" overflow="visible" style="line-height:normal;text-indent:0;text-align:start;text-decoration-line:none;text-decoration-style:solid;text-decoration-color:#000;text-transform:none;block-progression:tb;isolation:auto;mix-blend-mode:normal"/></svg>