<svg xmlns="http://www.w3.org/2000/svg" viewBox="0 0 64 64"><path fill="#78b9eb" d="M39.32 4.61L40 8H12l.68-3.39A2 2 0 0 1 14.64 3H37.36A2 2 0 0 1 39.32 4.61zM26 38a9 9 0 1 0-9-9A9 9 0 0 0 26 38zm15.65 3H24.87a14.952 14.952 0 0 0 .05 10.19 5.894 5.894 0 0 0-6.87.27 6.8 6.8 0 0 0-2.14 2.38C15.46 51.08 13.43 49 11 49a2.09 2.09 0 0 0-.25.01L9 14H43z"/><path fill="#78b9eb" d="M58,48.5A2.5,2.5,0,0,0,55.5,46H54a15.051,15.051,0,0,1-.87,5H55.5A2.5,2.5,0,0,0,58,48.5ZM55.5,43a5.5,5.5,0,0,1,0,11H51.67a14.989,14.989,0,0,1-25.07.45v-.01a4.234,4.234,0,0,0-.77-2.32,3.834,3.834,0,0,0-.91-.93A14.952,14.952,0,0,1,24.87,41H53.13a16.87,16.87,0,0,1,.55,2Z"/><path fill="#006df0" d="M26,19A10,10,0,1,0,36,29,10.011,10.011,0,0,0,26,19Zm0,18a8,8,0,1,1,8-8A8.009,8.009,0,0,1,26,37Z"/><path fill="#006df0" d="M55.5,42H54.47a11.162,11.162,0,0,0-.4-1.33,1,1,0,0,0-.94-.67H42.7l1.27-25.32a2.984,2.984,0,0,0,.96-.74,3.019,3.019,0,0,0,.67-2.43l-.34-2A2.978,2.978,0,0,0,42.31,7H40.82L40.3,4.41A3,3,0,0,0,37.36,2H14.64A3,3,0,0,0,11.7,4.41L11.18,7H9.69A2.978,2.978,0,0,0,6.74,9.51l-.34,2a3.019,3.019,0,0,0,.67,2.43,2.984,2.984,0,0,0,.96.74L9.71,48.17C7.02,48.86,5,51.66,5,55c0,3.86,2.69,7,6,7a5.632,5.632,0,0,0,4.37-2.21,5.547,5.547,0,0,0,3.42,2.02,7.458,7.458,0,0,0,1.16.09,7.93,7.93,0,0,0,7.26-5.09,15.975,15.975,0,0,0,25-1.81H55.5a6.5,6.5,0,0,0,0-13ZM13.66,4.8a1,1,0,0,1,.98-.8H37.36a1,1,0,0,1,.98.8L38.78,7H13.22ZM9.36,13a1,1,0,0,1-.99-1.16l.34-2A.989.989,0,0,1,9.69,9H42.31a.989.989,0,0,1,.98.84l.34,2A1,1,0,0,1,42.64,13Zm.78,45.48a5.323,5.323,0,0,0-.54,1.19A5.076,5.076,0,0,1,7,55c0-2.49,1.46-4.54,3.37-4.92-.07.13-.14.26-.23.4a4.644,4.644,0,0,0,0,5.03A2.384,2.384,0,0,1,10.6,57,2.354,2.354,0,0,1,10.14,58.48Zm1.49,1.44c.07-.13.14-.26.23-.41a4.644,4.644,0,0,0,0-5.03,2.627,2.627,0,0,1,0-2.97,5.029,5.029,0,0,0,.54-1.18A5.076,5.076,0,0,1,15,55C15,57.49,13.54,59.54,11.63,59.92Zm.07-11.87L10.05,15h31.9L40.7,40H24.87a1,1,0,0,0-.94.67A15.956,15.956,0,0,0,23,46a16.271,16.271,0,0,0,.38,3.41c-.12-.03-.23-.08-.35-.1a7.5,7.5,0,0,0-5.55,1.33,7.411,7.411,0,0,0-1.2,1.03A6.1,6.1,0,0,0,11.7,48.05Zm5.24,6.02a5.962,5.962,0,0,1,1.68-1.79,5.513,5.513,0,0,1,4.06-1,3.711,3.711,0,0,1,1.88.89,4.345,4.345,0,0,1-.52.1,5,5,0,0,0-2.34.92,4.9,4.9,0,0,0-1.66,1.88,2.952,2.952,0,0,1-1.05,1.22,2.882,2.882,0,0,1-1.5.57c-.23.04-.48.09-.75.16A7.876,7.876,0,0,0,17,55,7.145,7.145,0,0,0,16.94,54.07Zm8.51,1.69a5.851,5.851,0,0,1-6.31,4.08,3.689,3.689,0,0,1-1.87-.9c.17-.04.34-.07.52-.1a4.925,4.925,0,0,0,2.34-.91,4.986,4.986,0,0,0,1.66-1.89,3.367,3.367,0,0,1,2.56-1.79,5.72,5.72,0,0,0,1.18-.29A3.959,3.959,0,0,1,25.45,55.76ZM55.5,53H51.67a1.025,1.025,0,0,0-.85.47,13.965,13.965,0,0,1-23.25.59,5.278,5.278,0,0,0-.92-2.51,5.49,5.49,0,0,0-.86-.94A13.747,13.747,0,0,1,25.6,42H52.4c.1.35.2.75.3,1.21a1,1,0,0,0,.98.79H55.5a4.5,4.5,0,0,1,0,9Z"/><path fill="#006df0" d="M55.5,45H54a1,1,0,0,0-1,1,13.961,13.961,0,0,1-.814,4.666A1,1,0,0,0,53.128,52H55.5a3.5,3.5,0,0,0,0-7Zm0,5H54.48a15.812,15.812,0,0,0,.488-3H55.5a1.5,1.5,0,0,1,0,3Z"/></svg>